<svg width="200" height="200" viewBox="0 0 200 200" fill="none" xmlns="http://www.w3.org/2000/svg">
  <!-- Fondo circular con gradiente -->
  <circle cx="100" cy="100" r="95" fill="url(#gradient)" stroke="url(#borderGradient)" stroke-width="10"/>
  
  <!-- Símbolo de moneda $ estilizado -->
  <path d="M100 40 L100 160 M85 55 C85 50 90 45 100 45 C110 45 115 50 115 55 C115 65 100 70 100 80 C100 90 115 95 115 105 C115 110 110 115 100 115 C90 115 85 110 85 105" 
        stroke="white" stroke-width="8" fill="none" stroke-linecap="round" stroke-linejoin="round"/>
  
  <!-- Elementos decorativos - monedas pequeñas -->
  <circle cx="65" cy="75" r="8" fill="rgba(255,255,255,0.3)"/>
  <circle cx="135" cy="125" r="6" fill="rgba(255,255,255,0.2)"/>
  <circle cx="75" cy="135" r="5" fill="rgba(255,255,255,0.25)"/>
  <circle cx="125" cy="65" r="7" fill="rgba(255,255,255,0.3)"/>
  
  <!-- Definición de gradientes -->
  <defs>
    <linearGradient id="gradient" x1="0%" y1="0%" x2="100%" y2="100%">
      <stop offset="0%" style="stop-color:#f97316;stop-opacity:1" />
      <stop offset="50%" style="stop-color:#ec4899;stop-opacity:1" />
      <stop offset="100%" style="stop-color:#8b5cf6;stop-opacity:1" />
    </linearGradient>
    <linearGradient id="borderGradient" x1="0%" y1="0%" x2="100%" y2="100%">
      <stop offset="0%" style="stop-color:#fbbf24;stop-opacity:1" />
      <stop offset="100%" style="stop-color:#a855f7;stop-opacity:1" />
    </linearGradient>
  </defs>
</svg>
